
        <svg xmlns="http://www.w3.org/2000/svg" xmlns:xlink="http://www.w3.org/1999/xlink" version="1.1" width="3162.0610845626425" 
        height="816.2273848450609" viewBox="0 -32.41221691252857 3162.0610845626425 816.2273848450609">
			
			<g transform="scale(8.103054228132143) translate(10, 10)">
				<defs id="SvgjsDefs63324"></defs><g id="SvgjsG63325" featureKey="symbolFeature-0" transform="matrix(1.0096153846153846,0,0,1.0096153846153846,11.903852893755987,-16.11532299335186)" fill="#ff00cf"><g xmlns="http://www.w3.org/2000/svg" transform="translate(0,-952.36218)"><path d="m 60.7828,964.36215 27.1809,0.8834 -27.1809,25.9958 z m -1.9745,1.4513 0,26.7845 -25.2681,0 c 8.6166,-8.7334 16.8796,-17.8103 25.2681,-26.7845 z m 27.7053,3.628 3.4864,1.1989 -12.5877,7.4768 z m -68.1835,2.9656 5.5226,0 12.8654,14.0705 -5.9854,6.1204 -12.4026,0 c 9e-4,-6.7347 0,-13.4597 0,-20.1909 z m -1.9746,1.2304 0,5.8364 -6.3555,0 z m 3.363,20.9796 38.627,0 -10.7675,29.43465 z m 39.0898,4.54286 0,41.20229 -12.5878,-6.8775 c 4.1972,-11.443 8.3886,-22.879 12.5878,-34.32479 z" style="text-indent:0;text-transform:none;direction:ltr;block-progression:tb;baseline-shift:baseline;color:;enable-background:accumulate;" fill="#ff00cf" fill-opacity="1" stroke="none" marker="none" visibility="visible" display="inline" overflow="visible"></path></g></g><g id="SvgjsG63326" featureKey="vMvB0T-0" transform="matrix(1.9070037058937632,0,0,1.9070037058937632,101,15.236142153393414)" fill="#520556"><path d="M3.36 16.64 l3.98 0 l0 3.36 l-7.34 0 l0 -14.88 l3.36 0 l0 11.52 l0 0 z M16.080000000000002 16.08 l-2.9 0 l-1.32 3.92 l-3.82 0 l4.36 -14.88 l4.48 0 l4.36 14.88 l-3.82 0 z M27.480000000000004 20 l-2 -4.84 l-0.04 0 l0 4.84 l-3.36 0 l0 -14.88 l4.52 0 l0.02 0 c0.85334 0 1.5633 0.13 2.13 0.39 s1.02 0.60666 1.36 1.04 s0.58334 0.94 0.73 1.52 s0.22 1.19 0.22 1.83 c0 0.66666 -0.11 1.26 -0.33 1.78 s-0.48 0.95666 -0.78 1.31 s-0.60334 0.62 -0.91 0.8 s-0.54666 0.27 -0.72 0.27 l3.02 5.94 l-3.86 0 z M39.980000000000004 16.08 l-2.9 0 l-1.32 3.92 l-3.82 0 l4.36 -14.88 l4.48 0 l4.36 14.88 l-3.82 0 z M64.64000000000001 5.119999999999999 l0 14.88 l-3.56 0 l0 -5.2 l-1.82 5.2 l-2.16 0 l-1.86 -5.36 l0 5.36 l-3.56 0 l0 -14.88 l3.42 0 l3.08 8.64 l3.1 -8.64 l0 0 l3.36 0 l0 0 z M71.68 16.7 c0.57334 0.04 1.05 -0.10664 1.43 -0.43998 s0.67 -0.73334 0.87 -1.2 l2.9 1.62 c-0.12 0.24 -0.29 0.54666 -0.51 0.92 s-0.53 0.74 -0.93 1.1 s-0.91 0.67 -1.53 0.93 s-1.3833 0.39 -2.29 0.39 l-0.02 0 c-1.0133 0 -1.8633 -0.16 -2.55 -0.48 s-1.2467 -0.75 -1.68 -1.29 s-0.75 -1.1667 -0.95 -1.88 s-0.32 -1.4567 -0.36 -2.23 l0 -3.08 c0.01334 -0.73334 0.13668 -1.4567 0.37002 -2.17 s0.58 -1.35 1.04 -1.91 s1.0367 -1.01 1.73 -1.35 s1.5 -0.51 2.42 -0.51 l0.02 0 c0.81334 0 1.5133 0.11334 2.1 0.34 s1.09 0.52 1.51 0.88 s0.76 0.76666 1.02 1.22 s0.46334 0.90668 0.61 1.36 l-2.9 1.62 c-0.08 -0.24 -0.19 -0.48666 -0.33 -0.74 s-0.31 -0.48 -0.51 -0.68 s-0.42666 -0.36 -0.68 -0.48 s-0.52 -0.17334 -0.8 -0.16 c-0.68 0.05334 -1.2233 0.32334 -1.63 0.81 s-0.61 1.0967 -0.61 1.83 l0 2.9 c0 0.73334 0.20666 1.35 0.62 1.85 s0.96 0.77666 1.64 0.83 z M89.02000000000001 17.240000000000002 c-0.25334 0.36 -0.55664 0.70996 -0.90998 1.05 s-0.74668 0.63666 -1.18 0.89 s-0.91 0.45668 -1.43 0.61002 s-1.0667 0.23 -1.64 0.23 l-0.02 0 c-0.89334 0 -1.68 -0.14666 -2.36 -0.44 s-1.25 -0.7 -1.71 -1.22 s-0.81666 -1.14 -1.07 -1.86 s-0.39334 -1.5067 -0.42 -2.36 l0 -3.08 c0 -0.8 0.12 -1.56 0.36 -2.28 s0.59334 -1.35 1.06 -1.89 s1.0467 -0.97 1.74 -1.29 s1.4933 -0.48 2.4 -0.48 l0.02 0 c0.90666 0.04 1.6433 0.19666 2.21 0.47 s1.02 0.59 1.36 0.95 s0.59666 0.72 0.77 1.08 s0.32668 0.64 0.46002 0.84 l-2.76 1.82 c-0.06666 -0.14666 -0.14332 -0.31332 -0.22998 -0.49998 s-0.20666 -0.36 -0.36 -0.52 s-0.34334 -0.29666 -0.57 -0.41 s-0.51332 -0.17 -0.85998 -0.17 c-0.66666 0 -1.1967 0.22334 -1.59 0.67 s-0.59 1.0367 -0.59 1.77 l0 2.9 c0 0.36 0.06 0.69666 0.18 1.01 s0.28334 0.58 0.49 0.8 s0.45 0.39666 0.73 0.53 s0.58666 0.2 0.92 0.2 c0.46666 0.01334 0.84332 -0.06666 1.13 -0.24 s0.50332 -0.39334 0.64998 -0.66 l0 -0.74 l-1.58 0 l0 -2.88 l4.8 0 l0 5.2 z M101.32000000000002 14.08 c0 0.72 -0.11 1.45 -0.33 2.19 s-0.59666 1.39 -1.13 1.95 c-0.54666 0.58666 -1.17 1.0333 -1.87 1.34 s-1.4433 0.46 -2.23 0.46 l-0.02 0 c-0.77334 0 -1.51 -0.15334 -2.21 -0.46 s-1.33 -0.74666 -1.89 -1.32 c-0.52 -0.56 -0.89 -1.1933 -1.11 -1.9 s-0.33666 -1.46 -0.35 -2.26 l0 -3.48 c0 -0.64 0.12666 -1.29 0.38 -1.95 s0.61334 -1.2433 1.08 -1.75 c0.56 -0.57334 1.1867 -1.0133 1.88 -1.32 s1.4333 -0.46 2.22 -0.46 l0.02 0 c0.78666 0 1.53 0.15334 2.23 0.46 s1.3233 0.74666 1.87 1.32 c0.48 0.50666 0.84 1.08 1.08 1.72 s0.36666 1.3 0.38 1.98 l0 3.48 l0 0 z M114.50000000000001 5.119999999999999 l4.16 0 l-4.22 14.88 l-3.02 0 l-1.36 -6.28 l-1.56 6.28 l-3.22 0 l-3.82 -14.88 l3.96 0 l1.58 6.68 l1.56 -6.68 l2.82 0 l1.56 6.68 l1.56 -6.68 l0 0 z M124.2 16.08 l-2.9 0 l-1.32 3.92 l-3.82 0 l4.36 -14.88 l4.48 0 l4.36 14.88 l-3.82 0 z M137.62 5.119999999999999 l3.56 0 l0 14.88 l-3.4 0 l-4 -7.32 l0 7.32 l-3.56 0 l0 -14.88 l3.42 0 l3.98 7.3 l0 -7.3 l0 0 z"></path></g>
			</g>
		</svg>
	