<?xml version="1.0" encoding="utf-8"?>
<!-- Generator: Adobe Illustrator 25.0.1, SVG Export Plug-In . SVG Version: 6.00 Build 0)  -->
<svg version="1.1" id="Layer_1" xmlns="http://www.w3.org/2000/svg" xmlns:xlink="http://www.w3.org/1999/xlink" x="0px" y="0px"
	 viewBox="0 0 32 32" style="enable-background:new 0 0 32 32;" xml:space="preserve">
<style type="text/css">
	.st0{fill:#FFFFFF;}
</style>
<rect width="32" height="32"/>
<g>
	<path class="st0" d="M19.7,3.1l9.2,0.3l-9.2,8.8V3.1z M19,3.6v9.1h-8.6C13.3,9.7,16.1,6.6,19,3.6z M28.4,4.8l1.2,0.4l-4.3,2.5
		L28.4,4.8z M5.2,5.8h1.9l4.4,4.8l-2,2.1H5.2C5.2,10.4,5.2,8.1,5.2,5.8z M4.6,6.2v2H2.4L4.6,6.2z M5.7,13.4h13.1l-3.7,10L5.7,13.4z
		 M19,14.9v14l-4.3-2.3C16.1,22.7,17.6,18.8,19,14.9z"/>
</g>
</svg>
